<svg className="floating-logo" width="100px" height="100px" viewBox="0 0 659 631" fill="none" xmlns="http://www.w3.org/2000/svg">
<path fill-rule="evenodd" clip-rule="evenodd" d="M336.333 630.333V315.667V1.00009L327.4 1.13342C309.667 1.53343 263.933 7.40009 260.067 9.93343C259.4 10.2001 259 91.6667 258.867 190.733V371L255.4 361.667C254.506 359.176 252.755 354.391 250.631 348.586C248.321 342.272 245.57 334.752 243 327.667C235.458 307.412 232.966 300.651 218.358 261.025C214.888 251.612 210.734 240.344 205.667 226.6C200.643 212.846 195.924 200.008 192.893 191.762C191.017 186.658 189.788 183.314 189.533 182.6C188.467 179.8 187.933 179.4 187 181C186.467 182.067 168.733 229.8 147.667 287C101.935 411.396 101.143 413.943 99.9513 414.147C99.8644 414.161 99.7753 414.164 99.6666 414.2C97.7999 414.733 87.9332 389.8 83.6666 374.333C77.9332 352.467 75.9332 333.933 76.7332 307.667C77.6666 281.667 80.1999 266.467 87.5332 244.333C100.733 204.867 121.8 172.733 154.867 141.8C159.667 137.267 165.133 132.6 166.733 131.4L169.933 129.267L156.867 93.9334L143.933 58.4668L136.067 63.9334C112.467 79.8001 81.9332 108.6 64.0666 131.667C29.7999 175.933 9.53324 224.067 2.19991 278.333C-0.2001 296.333 -0.2001 335 2.19991 353C9.53324 407.667 30.9999 457.933 65.5332 501.667C81.7999 522.2 126.733 564.6 128.867 561.267C129.533 560.2 150.733 502.6 177.4 429.933C183.267 413.8 187.933 403 188.467 403.933C189 404.867 198.2 429.667 209 459L209.91 461.481C257.674 591.649 268.739 621.806 269.667 622.733C271.667 625 313.667 630.333 330.067 630.333H336.333ZM545.667 65.4001C499.533 32.7334 440.867 10.3334 385 3.80009C378.467 3.00009 366.2 2.06676 358.067 1.53343L343 0.600098V315.667V630.733L358.6 629.8C375.4 628.733 398.867 625.933 411.667 623.267L419.667 621.533L420.067 499.933L420.333 378.333H507.533C555.533 378.333 595.133 377.8 595.533 377.267C599.267 371.133 605.4 318.333 603.8 307L602.867 301H511.533H420.333V192.2V83.4001L424.067 84.3334C433.8 86.7334 462.733 99.2668 476.6 107.133C515.933 129.533 551 163.4 571.133 198.6L577 208.867L618.067 209C645.4 209 659 208.6 659 207.667C659 204.867 641.933 170.733 635 159.667C612.867 124.333 580.333 89.9334 545.667 65.4001Z" fill="white"/>
</svg>
